# AST/ASF file generated using VICON BodyLanguage
# -----------------------------------------------
:version 1.10
:name VICON
:units
  mass 1.0
  length 0.45
  angle deg
:documentation
   .ast/.asf automatically generated from VICON data using
   VICON BodyBuilder and BodyLanguage model FoxedUp or BRILLIANT.MOD
:root
   order TX TY TZ RX RY RZ
   axis XYZ
   position 0 0 0  
   orientation 0 0 0 
:bonedata
  begin
     id 1 
     name lhipjoint
     direction 0.64773 -0.699417 0.302095 
     length 2.48597 
     axis 0 0 0  XYZ
  end
  begin
     id 2 
     name lfemur
     direction 0.34202 -0.939693 0  
     length 6.71947  
     axis 0 0 20  XYZ
    dof rx ry rz
    limits (-160.0 20.0)
           (-70.0 70.0)
           (-60.0 70.0)
  end
  begin
     id 3 
     name ltibia
     direction 0.34202 -0.939693 0   
     length 8.08777   
     axis 0 0 20   XYZ
    dof rx
    limits (-10.0 170.0)
  end
  begin
     id 4 
     name lfoot
     direction 0.0808503 -0.222134 0.971658   
     length 2.08264   
     axis -90 7.62852e-016 20   XYZ
    dof rx rz
    limits (-45.0 90.0)
           (-70.0 20.0)
  end
  begin
     id 5 
     name ltoes
     direction 1.53502e-011 -4.22007e-011 1   
     length 1.04662   
     axis -90 7.62852e-016 20   XYZ
    dof rx
    limits (-90.0 20.0)
  end
  begin
     id 6 
     name rhipjoint
     direction -0.610924 -0.726792 0.313919   
     length 2.39233  
     axis 0 0 0  XYZ 
  end
  begin
     id 7 
     name rfemur
     direction -0.34202 -0.939693 0   
     length 6.96955   
     axis 0 0 -20   XYZ
    dof rx ry rz
    limits (-160.0 20.0)
           (-70.0 70.0)
           (-70.0 60.0)
  end
  begin
     id 8 
     name rtibia
     direction -0.34202 -0.939693 0   
     length 8.19584   
     axis 0 0 -20   XYZ
    dof rx
    limits (-10.0 170.0)
 end
 begin
     id 9 
     name rfoot
     direction -0.077777 -0.213691 0.9738   
     length 2.07539  
     axis -90 -7.62852e-016 -20   XYZ
    dof rx rz
    limits (-45.0 90.0)
           (-20.0 70.0)
  end
  begin
     id 10 
     name rtoes
     direction -1.53558e-011 -4.22006e-011 1   
     length 1.04381   
     axis -90 -7.62852e-016 -20   XYZ
    dof rx
    limits (-90.0 20.0)
  end
  begin
     id 11 
     name lowerback
     direction -0.00971646 0.996074 0.0879841   
     length 1.67643   
     axis 0 0 0   XYZ
    dof rx ry rz
    limits (-20.0 45.0)
           (-30.0 30.0)
           (-30.0 30.0)
  end
  begin
     id 12 
     name upperback
     direction 0.0127391 0.991676 0.128127   
     length 1.63741   
     axis 0 0 0   XYZ
    dof rx ry rz
    limits (-20.0 45.0)
           (-30.0 30.0)
           (-30.0 30.0)
  end
  begin
     id 13 
     name thorax
     direction 0.0167583 0.996049 0.0872067   
     length 1.65931   
     axis 0 0 0   XYZ
    dof rx ry rz
    limits (-20.0 45.0)
           (-30.0 30.0)
           (-30.0 30.0)
  end
  begin
     id 14 
     name lowerneck
     direction -0.0317829 0.998312 0.0486079   
     length 1.79021   
     axis 0 0 0   XYZ
    dof rx ry rz
    limits (-20.0 45.0)
           (-30.0 30.0)
           (-30.0 30.0)
  end
  begin
     id 15 
     name upperneck
     direction 0.0896851 0.972452 -0.215159   
     length 1.78797   
     axis 0 0 0   XYZ
    dof rx ry rz
    limits (-20.0 45.0)
           (-30.0 30.0)
           (-30.0 30.0)
  end
  begin
     id 16
     name head
     direction 0.0310949 0.996503 -0.0775582  
     length 1.81549  
     axis 0 0 0   XYZ
    dof rx ry rz
    limits (-20.0 45.0)
           (-30.0 30.0)
           (-30.0 30.0)
  end
  begin
     id 17 
     name lclavicle
     direction 0.853638 0.502051 -0.138733  
     length 3.31627  
     axis 0 0 0   XYZ
    dof ry rz
    limits (-20.0 10.0)
           (0.0 20.0)
  end
  begin
     id 18 
     name lhumerus
     direction 1 -4.48962e-011 -1.41788e-018   
     length 5.54893   
     axis 180 -30 -90   XYZ
    dof rx ry rz
    limits (-60.0 90.0)
           (-90.0 90.0)
           (-90.0 90.0)
  end
  begin
     id 19
     name lradius
     direction 1 -4.48962e-011 -4.95754e-027   
     length 3.02898   
     axis 180 -30 -90   XYZ
    dof rx
    limits (-10.0 170.0)
  end
  begin
     id 20
     name lwrist
     direction 1 -4.48952e-011 -1.03764e-026   
     length 1.51449   
     axis 9.09556e-015 90 90   XYZ
    dof ry
    limits (-180.0 0.0)
 end
  begin
     id 21 
     name lhand
     direction 1 -4.4902e-011 -2.07528e-026   
     length 0.640951   
     axis 1.3242e-014 90 90   XYZ
    dof rx rz
    limits (-90.0 90.0)
           (-45.0 45.0)
  end
  begin
     id 22 
     name lfingers
     direction 1 -4.49014e-011 -4.15056e-026   
     length 0.516751   
     axis 2.64841e-014 90 90   XYZ
    dof rx
    limits (0.0 90.0)
  end
  begin
     id 23
     name lthumb
     direction 0.707107 -6.35008e-011 0.707107   
     length 0.741954   
     axis -90 45 2.85299e-015   XYZ
    dof rx rz
    limits (-45.0 45.0)
           (-45.0 45.0)
  end
  begin
     id 24 
     name rclavicle
     direction -0.888531 0.455324 -0.0565039   
     length 3.20126  
     axis 0 0 0   XYZ 
    dof ry rz
    limits (-10.0 20.0)
           (-20.0 0.0)
  end
  begin
     id 25 
     name rhumerus
     direction -1 -4.48946e-011 -8.98298e-028  
     length 5.3519   
     axis 180 30 90   XYZ
    dof rx ry rz
    limits (-90.0 60.0)
           (-90.0 90.0)
           (-90.0 90.0)
  end
  begin
     id 26 
     name rradius
     direction -1 -4.4899e-011 -3.18779e-027   
     length 3.02531   
     axis 180 30 90   XYZ
    dof rx
    limits (-10.0 170.0)
  end
  begin
     id 27 
     name rwrist
     direction -1 -4.4897e-011 -1.03764e-026   
     length 1.51266   
     axis 9.09556e-015 -90 -90   XYZ
    dof ry
    limits (-180.0 0.0)
  end
  begin
     id 28
     name rhand
     direction -1 -4.48941e-011 -2.07528e-026   
     length 0.78389   
     axis 1.3242e-014 -90 -90   XYZ
    dof rx rz
    limits (-90.0 90.0)
           (-45.0 45.0)
  end
  begin
     id 29
     name rfingers
     direction -1 -4.49012e-011 -4.15056e-026   
     length 0.631992   
     axis 2.64841e-014 -90 -90   XYZ
    dof rx
    limits (0.0 90.0)
  end
  begin
     id 30
     name rthumb
     direction -0.707107 -6.3496e-011 0.707107   
     length 0.907418   
     axis -90 -45 -2.85299e-015   XYZ
    dof rx rz
    limits (-45.0 45.0)
           (-45.0 45.0)
  end
:hierarchy
  begin
    root lhipjoint rhipjoint lowerback
    lhipjoint lfemur
    lfemur ltibia
    ltibia lfoot
    lfoot ltoes
    rhipjoint rfemur
    rfemur rtibia
    rtibia rfoot
    rfoot rtoes
    lowerback upperback
    upperback thorax
    thorax lowerneck lclavicle rclavicle
    lowerneck upperneck
    upperneck head
    lclavicle lhumerus
    lhumerus lradius
    lradius lwrist
    lwrist lhand lthumb
    lhand lfingers
    rclavicle rhumerus
    rhumerus rradius
    rradius rwrist
    rwrist rhand rthumb
    rhand rfingers
  end

#!OML:ASF E:\Style3\Style3.ASF
:FULLY-SPECIFIED
:DEGREES
2522
root -1.65328 17.6856 0.0677708 -852.256 66.4076 -891.263
lowerback 21.5271 -2.70166 -4.98516
upperback 11.5826 -2.35726 -10.2846
thorax 0.521829 -0.191505 -7.86802
lowerneck -9.19092 -9.73788 -11.5028
upperneck 3.7945 -14.0985 28.3231
head 5.83576 -5.87687 9.82044
rclavicle -3.81667e-014 7.63333e-014
rhumerus 99.0992 -2.43576 -59.4867
rradius 18.7011
rwrist 83.1523
rhand -27.5382 17.6986
rfingers 7.12502
rthumb -0.939932 -12.2791
lclavicle -1.27222e-014 -1.11319e-014
lhumerus 52.6144 -34.6249 50.6026
lradius 124.14
lwrist 83.0001
lhand -29.1193 34.7858
lfingers 7.12502
lthumb -2.46694 64.7513
rfemur -42.8146 13.9216 4.55778
rtibia 11.773
rfoot -17.8294 -38.4216
rtoes 0.306871
lfemur -58.094 -9.55525 -4.8587
ltibia 19.9081
lfoot 1.11595 13.5756
ltoes -27.5322
2523
root -1.65353 17.6859 0.0682244 -852.287 66.4293 -891.293
lowerback 21.5271 -2.70166 -4.98516
upperback 11.5826 -2.35726 -10.2846
thorax 0.521829 -0.191505 -7.86802
lowerneck -9.19092 -9.73788 -11.5028
upperneck 3.7945 -14.0985 28.3231
head 5.83576 -5.87687 9.82044
rclavicle -3.81667e-014 7.63333e-014
rhumerus 99.0992 -2.43576 -59.4867
rradius 18.7011
rwrist 83.1523
rhand -27.5382 17.6986
rfingers 7.12502
rthumb -0.939932 -12.2791
lclavicle -1.27222e-014 -1.11319e-014
lhumerus 52.6144 -34.6249 50.6026
lradius 124.14
lwrist 83.0001
lhand -29.1193 34.7858
lfingers 7.12502
lthumb -2.46694 64.7513
rfemur -42.8136 13.9152 4.54185
rtibia 11.7853
rfoot -17.827 -38.3963
rtoes 0.283411
lfemur -58.0776 -9.53456 -4.89766
ltibia 19.8923
lfoot 1.08183 13.5586
ltoes -27.4635
2524
root -1.65408 17.6789 0.0686563 -852.25 66.4575 -891.27
lowerback 21.5271 -2.70166 -4.98516
upperback 11.5826 -2.35726 -10.2846
thorax 0.521829 -0.191505 -7.86802
lowerneck -9.19092 -9.73788 -11.5028
upperneck 3.7945 -14.0985 28.3231
head 5.83576 -5.87687 9.82044
rclavicle -3.81667e-014 7.63333e-014
rhumerus 99.0992 -2.43576 -59.4867
rradius 18.7011
rwrist 83.1523
rhand -27.5382 17.6986
rfingers 7.12502
rthumb -0.939932 -12.2791
lclavicle -1.27222e-014 -1.11319e-014
lhumerus 52.6144 -34.6249 50.6026
lradius 124.14
lwrist 83.0001
lhand -29.1193 34.7858
lfingers 7.12502
lthumb -2.46694 64.7513
rfemur -42.8773 13.9181 4.5253
rtibia 11.8386
rfoot -17.9323 -38.3746
rtoes 0.556029
lfemur -58.1596 -9.55874 -4.83097
ltibia 19.8268
lfoot 1.1714 13.7116
ltoes -27.6065
2525
root -1.65578 17.6746 0.0681558 -852.286 66.4692 -891.314
lowerback 21.5271 -2.70166 -4.98516
upperback 11.5826 -2.35726 -10.2846
thorax 0.521829 -0.191505 -7.86802
lowerneck -9.19092 -9.73788 -11.5028
upperneck 3.7945 -14.0985 28.3231
head 5.83576 -5.87687 9.82044
rclavicle -3.81667e-014 7.63333e-014
rhumerus 99.0992 -2.43576 -59.4867
rradius 18.7011
rwrist 83.1523
rhand -27.5382 17.6986
rfingers 7.12502
rthumb -0.939932 -12.2791
lclavicle -1.27222e-014 -1.11319e-014
lhumerus 52.6144 -34.6249 50.6026
lradius 124.14
lwrist 83.0001
lhand -29.1193 34.7858
lfingers 7.12502
lthumb -2.46694 64.7513
rfemur -42.9616 13.8911 4.50717
rtibia 11.9785
rfoot -17.9512 -38.3537
rtoes 0.469496
lfemur -58.1434 -9.59583 -4.8119
ltibia 19.6773
lfoot 1.32171 13.7513
ltoes -27.7609
2526
root -1.6569 17.6731 0.0673091 -852.165 66.4623 -891.239
lowerback 21.5271 -2.70166 -4.98516
upperback 11.5826 -2.35726 -10.2846
thorax 0.521829 -0.191505 -7.86802
lowerneck -9.19092 -9.73788 -11.5028
upperneck 3.7945 -14.0985 28.3231
head 5.83576 -5.87687 9.82044
rclavicle -3.81667e-014 7.63333e-014
rhumerus 99.0992 -2.43576 -59.4867
rradius 18.7011
rwrist 83.1523
rhand -27.5382 17.6986
rfingers 7.12502
rthumb -0.939932 -12.2791
lclavicle -1.27222e-014 -1.11319e-014
lhumerus 52.6144 -34.6249 50.6026
lradius 124.14
lwrist 83.0001
lhand -29.1193 34.7858
lfingers 7.12502
lthumb -2.46694 64.7513
rfemur -43.0659 13.8795 4.52818
rtibia 12.0459
rfoot -17.7292 -38.4151
rtoes -0.207793
lfemur -58.1582 -9.57447 -4.76477
ltibia 19.6076
lfoot 1.35836 13.7488
ltoes -27.6951
2527
root -1.65846 17.6741 0.0658678 -852.29 66.4456 -891.33
lowerback 21.5271 -2.70166 -4.98516
upperback 11.5826 -2.35726 -10.2846
thorax 0.521829 -0.191505 -7.86802
lowerneck -9.19092 -9.73788 -11.5028
upperneck 3.7945 -14.0985 28.3231
head 5.83576 -5.87687 9.82044
rclavicle -3.81667e-014 7.63333e-014
rhumerus 99.0992 -2.43576 -59.4867
rradius 18.7011
rwrist 83.1523
rhand -27.5382 17.6986
rfingers 7.12502
rthumb -0.939932 -12.2791
lclavicle -1.27222e-014 -1.11319e-014
lhumerus 52.6144 -34.6249 50.6026
lradius 124.14
lwrist 83.0001
lhand -29.1193 34.7858
lfingers 7.12502
lthumb -2.46694 64.7513
rfemur -42.9713 13.834 4.53074
rtibia 11.9905
rfoot -17.7418 -38.3528
rtoes -0.0247794
lfemur -58.1539 -9.59112 -4.82686
ltibia 19.6813
lfoot 1.27016 13.6861
ltoes -27.5321
2528
root -1.65808 17.6788 0.0622936 -852.166 66.5267 -891.19
lowerback 21.5271 -2.70166 -4.98516
upperback 11.5826 -2.35726 -10.2846
thorax 0.521829 -0.191505 -7.86802
lowerneck -9.19092 -9.73788 -11.5028
upperneck 3.7945 -14.0985 28.3231
head 5.83576 -5.87687 9.82044
rclavicle -3.81667e-014 7.63333e-014
rhumerus 99.0992 -2.43576 -59.4867
rradius 18.7011
rwrist 83.1523
rhand -27.5382 17.6986
rfingers 7.12502
rthumb -0.939932 -12.2791
lclavicle -1.27222e-014 -1.11319e-014
lhumerus 52.6144 -34.6249 50.6026
lradius 124.14
lwrist 83.0001
lhand -29.1193 34.7858
lfingers 7.12502
lthumb -2.46694 64.7513
rfemur -42.9575 13.9088 4.50498
rtibia 11.9058
rfoot -17.5178 -38.4205
rtoes -0.452132
lfemur -58.1122 -9.53848 -4.8362
ltibia 19.7769
lfoot 1.17452 13.7116
ltoes -27.2585
2529
root -1.65999 17.6826 0.0621552 -852.151 66.495 -891.118
lowerback 21.5271 -2.70166 -4.98516
upperback 11.5826 -2.35726 -10.2846
thorax 0.521829 -0.191505 -7.86802
lowerneck -9.19092 -9.73788 -11.5028
upperneck 3.7945 -14.0985 28.3231
head 5.83576 -5.87687 9.82044
rclavicle -3.81667e-014 7.63333e-014
rhumerus 99.0992 -2.43576 -59.4867
rradius 18.7011
rwrist 83.1523
rhand -27.5382 17.6986
rfingers 7.12502
rthumb -0.939932 -12.2791
lclavicle -1.27222e-014 -1.11319e-014
lhumerus 52.6144 -34.6249 50.6026
lradius 124.14
lwrist 83.0001
lhand -29.1193 34.7858
lfingers 7.12502
lthumb -2.46694 64.7513
rfemur -42.8787 13.9138 4.57049
rtibia 11.8735
rfoot -17.5552 -38.3841
rtoes -0.420381
lfemur -58.0435 -9.52092 -4.84586
ltibia 19.8152
lfoot 1.1024 13.7012
ltoes -27.0262
2530
root -1.65992 17.6782 0.0615935 -852.058 66.5061 -891.028
lowerback 21.5271 -2.70166 -4.98516
upperback 11.5826 -2.35726 -10.2846
thorax 0.521829 -0.191505 -7.86802
lowerneck -9.19092 -9.73788 -11.5028
upperneck 3.7945 -14.0985 28.3231
head 5.83576 -5.87687 9.82044
rclavicle -3.81667e-014 7.63333e-014
rhumerus 99.0992 -2.43576 -59.4867
rradius 18.7011
rwrist 83.1523
rhand -27.5382 17.6986
rfingers 7.12502
rthumb -0.939932 -12.2791
lclavicle -1.27222e-014 -1.11319e-014
lhumerus 52.6144 -34.6249 50.6026
lradius 124.14
lwrist 83.0001
lhand -29.1193 34.7858
lfingers 7.12502
lthumb -2.46694 64.7513
rfemur -42.9021 13.9319 4.59126
rtibia 11.8822
rfoot -17.5287 -38.3783
rtoes -0.469989
lfemur -58.0932 -9.50316 -4.80665
ltibia 19.8085
lfoot 1.13927 13.7317
ltoes -27.4101
